<?xml version="1.0" standalone="no"?>
<!DOCTYPE svg PUBLIC "-//W3C//DTD SVG 20010904//EN"
 "http://www.w3.org/TR/2001/REC-SVG-20010904/DTD/svg10.dtd">
<svg version="1.0" xmlns="http://www.w3.org/2000/svg"
 width="600.000000pt" height="600.000000pt" viewBox="0 0 600.000000 600.000000"
 preserveAspectRatio="xMidYMid meet">
<metadata>
Created by potrace 1.14, written by Peter Selinger 2001-2017
</metadata>
<g transform="translate(0.000000,600.000000) scale(0.100000,-0.100000)"
fill="#000000" stroke="none">
<path d="M0 3000 l0 -3000 3000 0 3000 0 0 3000 0 3000 -3000 0 -3000 0 0
-3000z m1850 2015 l0 -375 215 0 216 0 -3 -387 -3 -388 -62 -180 c-54 -157
-115 -311 -193 -491 l-23 -51 104 -129 c58 -71 146 -184 197 -251 l92 -122 0
-244 0 -244 -140 -127 -139 -126 -39 52 c-21 29 -78 110 -128 181 l-89 128 -3
-826 -2 -825 -405 0 -405 0 0 705 c0 388 -2 705 -6 705 -3 0 -37 -28 -77 -62
-126 -109 -297 -230 -297 -211 0 4 -36 196 -81 427 -73 376 -80 420 -66 428 9
5 61 42 114 82 318 238 559 524 737 876 68 134 146 316 146 340 0 7 -151 10
-440 10 l-440 0 0 365 0 365 205 0 205 0 0 375 0 375 405 0 405 0 0 -375z
m3650 -60 l0 -335 -1560 0 -1560 0 0 335 0 335 1560 0 1560 0 0 -335z m-210
-1170 l0 -655 -479 0 c-435 0 -480 2 -492 17 -28 34 -149 103 -225 129 -64 22
-97 27 -179 27 -156 1 -268 -37 -387 -129 l-56 -44 -456 0 -456 0 0 655 0 655
1365 0 1365 0 0 -655z m-1294 -1096 c75 -70 70 -179 -12 -230 l-34 -21 0 -243
0 -243 210 121 c208 120 210 122 210 155 0 19 8 50 17 69 46 97 199 98 249 1
34 -66 12 -151 -49 -188 -38 -24 -115 -26 -143 -5 -10 8 -25 15 -32 15 -17 0
-421 -233 -416 -241 2 -3 95 -59 207 -123 l203 -117 47 21 c84 37 173 -4 195
-90 36 -143 -135 -241 -238 -135 -26 27 -34 44 -38 84 l-4 50 -177 102 c-97
56 -191 110 -208 121 l-33 20 0 -245 0 -245 33 -20 c90 -52 86 -185 -5 -243
-39 -24 -112 -22 -153 5 -37 24 -69 99 -60 142 7 38 55 100 86 109 18 6 19 18
19 252 0 134 -4 243 -8 241 -5 -2 -101 -57 -214 -122 -195 -113 -207 -121
-202 -145 7 -39 -34 -112 -76 -134 -101 -52 -220 28 -207 140 2 23 12 54 21
68 36 55 133 76 192 40 l31 -17 206 118 c113 66 206 121 207 124 0 3 -93 59
-206 124 l-206 119 -34 -17 c-76 -36 -166 -9 -198 58 -47 100 18 206 126 206
80 0 142 -61 142 -141 1 -39 -4 -36 368 -247 l58 -33 0 246 c0 225 -1 246 -17
252 -33 11 -73 57 -84 95 -18 67 10 129 76 167 34 19 121 8 151 -20z"/>
<path d="M3400 3770 l0 -140 510 0 510 0 0 140 0 140 -510 0 -510 0 0 -140z"/>
</g>
</svg>
