<?xml version="1.0" encoding="utf-8"?>
<!-- Generator: Adobe Illustrator 26.4.1, SVG Export Plug-In . SVG Version: 6.00 Build 0)  -->
<svg version="1.1" id="レイヤー_1" xmlns="http://www.w3.org/2000/svg" xmlns:xlink="http://www.w3.org/1999/xlink" x="0px"
	 y="0px" viewBox="0 0 1777 620" style="enable-background:new 0 0 1777 620;" xml:space="preserve">
<style type="text/css">
	.st0{fill:#FFFFFF;}
	.st1{fill:#E8546B;}
	.st2{fill:#FCE9DE;}
</style>
<g>
	<g>
		<path class="st0" d="M24.2,105.8l0.4-94.2h30.2l-0.6,94.8L24.2,105.8z M111.2,167.4L74.5,142l11.8-16.4l12.2,8.3
			c15.7-25.4,20.8-56.6,17.1-86.5c-1.7-12.9-5-24.5-9.6-38l28-9.4c12,33.6,13.5,56,12.5,76.3c-0.9,19.2-5.5,38-13.5,55.7
			C127.6,144.3,119.7,155.8,111.2,167.4z"/>
		<path class="st0" d="M356.8,137.9l-21.9,20.3l-80.4-92.9l-45.7,72.3l-28-18.4l10-17.1l4.1,2.8l56.4-89L356.8,137.9z M302.2,59.2
			l-5.2-27.3l17.9-3.5l4.8,27.3L302.2,59.2z M326.9,64l-5.3-27.5l17.9-3.5l5.2,27.3L326.9,64z"/>
		<path class="st0" d="M452.8,93.8l-74.7-0.4V64.7l74.8,0.4L452.8,93.8z M458.4,54l-79.6-19.7l7.2-27.5l79.3,19.5L458.4,54z
			 M421.3,163.9L406,127l19.4-7.9l4.4,11.1c15.9-7.6,31.2-17.7,44.6-29.7c14.2-12.7,24-27.8,33.6-45.5L533.6,68
			c-7.2,13.3-13.8,26-23,36.9C487.3,131.8,457.1,149.9,421.3,163.9z"/>
		<path class="st0" d="M563.1,84.3V56h149.7v28.2h-53.8c2.8,34.5-17.7,66.6-27.1,80.2l-36.5-23.6l11.6-16.8l11.1,7.4
			c4.4-8.3,12.9-28.6,10.5-47.2H563.1z M699.3,39.8H576.5V11.4h122.8V39.8z"/>
		<path class="st0" d="M854,22.7l31.9,16c-6.5,12.7-16.2,31.2-40.7,47v76.1h-27.3V99c-12.2,4.6-27.8,8.3-59.2,10.5l-1.8-25.8
			c65.6-4.6,89.2-30.2,96.6-40.4l-8.1-4.4L854,22.7z"/>
	</g>
	<path class="st0" d="M790.5,280.7h-248v335.7h-68.3V223.7h384.6V536c0,13.5-0.4,24.3-0.9,31.9c-0.4,15.7-4.9,30.1-9.9,35.9
		c-2.7,2.7-7.2,4.9-13.5,7.2c-11.7,4.9-23.4,4.9-46.7,4.9c-2.7,0-28.8-0.9-76.8-2.7l-3.6-57.1c38.6,1.3,60.2,2.2,65.2,2.2
		c17.1,0,18-0.9,18-18V280.7z M777.5,359.8v55.3h-80v66.1H715v-50.3h53.5v116.4H715v-10.3H618v40.9h-53.5V430.8H618v50.3h17.5v-66.1
		h-80v-55.3h38.2c-6.3-22.9-12.6-42.2-18.4-58l58-15.3c7.6,21.6,15.3,46.3,22.5,73.2h17.1c12.6-22.5,23.4-47.6,32.4-75.5l56.2,17.1
		c-8.1,22.5-16.2,41.8-24.3,58.4H777.5z"/>
	<path class="st0" d="M1044,414.6c18.9,29.7,44.5,53.9,76.8,74.1c34.6-21.1,62-48.5,80.9-81.8H954.1v-55.3h125.8v-39.1H919.5v-57.5
		h160.4v-42.2h71.9v42.2h160.4v57.5h-160.4v39.1h125.8V407c-22.9,46.3-53.9,84-92.1,113.7c37.3,14.4,82.2,26.5,134.8,35.5
		l-22.5,57.5c-71.9-12.1-131.7-29.2-179.3-52.6c-47.6,22.5-109.2,40-184.7,52.6l-22.5-57.5c56.2-9.9,103.3-22,141.5-35.9
		c-29.7-23.4-54.8-51.7-75-84L1044,414.6z"/>
	<path class="st0" d="M1587.2,366.1v57.5h-227.4v-57.5h39.5c-6.7-27.4-12.1-49-16.6-65.2h-18.4v-54.8h72.8v-35.9h70.1v35.9h75.5V301
		h-16.6c-4.9,24.3-9.9,45.8-15.7,65.2H1587.2z M1511.3,619.1v-14.8H1443v14.8h-68.3v-173h201.8v173H1511.3z M1443,501.4v49.4h68.3
		v-49.4H1443z M1490.2,366.1c4.9-19.3,10.3-40.9,15.3-65.2h-59.8c4.9,20.2,10.3,41.8,15.3,65.2H1490.2z M1776.9,494.2
		c0,58.4-20.2,80-67,80h-28.8l-13-58h7.2c28.8,0,34.6-4.5,34.6-27.9c0-27-12.1-53-44-91.2v222h-66.1V227.3h173v53.5
		c-11.2,38.2-24.7,75-41.8,110.5C1758.9,418.2,1776.9,457.8,1776.9,494.2z M1665.9,280.7v106.5c16.6-33.3,29.7-69.2,39.1-106.5
		H1665.9z"/>
	<path class="st0" d="M125.9,406.6c9.4-19.3,17.5-40.9,24.3-64.7v-61.1h-36.8v-63.4H46v63.4h-35v61.1h75
		c-15.7,45.8-44,83.6-85.8,111.4l13.9,71.4c9.4-5.8,19.8-13.9,31.9-24.7v120h67.4V479.4l22.5,31.9l23.6-21.4v-40.4
		C150.5,436.9,139.3,422.6,125.9,406.6z"/>
	<rect x="158.8" y="225.9" class="st0" width="262.9" height="56.2"/>
	<path class="st0" d="M173.6,297.4v110.1h230.1V297.4H173.6z M330.9,366.1h-86.7v-24.3h86.7V366.1z"/>
	<g>
		<path class="st1" d="M401.6,475.9c-8.6-26.4-36.5-41.1-63-33.4c-0.9-27.5-23.5-49.6-51.3-49.6c-27.8,0-50.4,22.1-51.3,49.6
			c-26.5-7.7-54.4,7-63,33.4c-8.6,26.4,5.4,54.7,31.3,64.1c-15.5,22.8-10.1,53.9,12.3,70.2c22.5,16.3,53.7,11.8,70.6-10
			c16.9,21.8,48.2,26.3,70.6,10c22.5-16.3,27.8-47.4,12.3-70.2C396.2,530.6,410.1,502.3,401.6,475.9z"/>
		<path class="st2" d="M344.2,532.1c-4.8-2.8-10.6-1.8-14.4,1.8L293.6,513l36.2-20.9c3.7,3.7,9.6,4.6,14.4,1.8
			c5.7-3.3,7.7-10.6,4.4-16.3c-3.3-5.7-10.6-7.7-16.3-4.4c-4.8,2.8-6.9,8.3-5.6,13.4l-36.2,20.9v-41.8c5.1-1.4,8.8-6,8.8-11.5
			c0-6.6-5.3-11.9-11.9-11.9s-11.9,5.3-11.9,11.9c0,5.5,3.7,10.1,8.8,11.5l0,41.8l-36.2-20.9c1.3-5.1-0.8-10.6-5.6-13.4
			c-5.7-3.3-13-1.3-16.3,4.4c-3.3,5.7-1.3,13,4.4,16.3c4.8,2.8,10.6,1.8,14.4-1.8L281,513l-36.2,20.9c-3.7-3.7-9.6-4.6-14.4-1.8
			c-5.7,3.3-7.7,10.6-4.4,16.3s10.6,7.7,16.3,4.4c4.8-2.8,6.9-8.3,5.6-13.4l36.2-20.9v41.8c-5.1,1.4-8.8,6-8.8,11.5
			c0,6.6,5.3,11.9,11.9,11.9s11.9-5.3,11.9-11.9c0-5.5-3.7-10.1-8.8-11.5l0-41.8l36.2,20.9c-1.3,5.1,0.8,10.6,5.6,13.4
			c5.7,3.3,13,1.3,16.3-4.4C351.9,542.7,350,535.4,344.2,532.1z"/>
	</g>
</g>
</svg>
